HIERARCHY
ROOT hip
{
  OFFSET 0 0 0
  CHANNELS 6 Xposition Yposition Zposition Zrotation Yrotation Xrotation
  JOINT abdomen
  {
    OFFSET 0 20.6881 -0.73152
    CHANNELS 3 Zrotation Xrotation Yrotation
    JOINT chest
    {
      OFFSET 0 11.7043 -0.48768
      CHANNELS 3 Zrotation Xrotation Yrotation
      JOINT neck
      {
        OFFSET 0 22.1894 -2.19456
        CHANNELS 3 Zrotation Xrotation Yrotation
        JOINT head
        {
          OFFSET -0.24384 7.07133 1.2192
          CHANNELS 3 Zrotation Xrotation Yrotation
          JOINT leftEye
          {
            OFFSET 4.14528 8.04674 8.04672
            CHANNELS 3 Zrotation Xrotation Yrotation
            End Site
            {
              OFFSET 1 0 0
            }
          }
          JOINT rightEye
          {
            OFFSET -3.6576 8.04674 8.04672
            CHANNELS 3 Zrotation Xrotation Yrotation
            End Site
            {
              OFFSET 1 0 0
            }
          }
        }
      }
      JOINT rCollar
      {
        OFFSET -2.68224 19.2634 -4.8768
        CHANNELS 3 Zrotation Xrotation Yrotation
        JOINT rShldr
        {
          OFFSET -8.77824 -1.95073 1.46304
          CHANNELS 3 Zrotation Xrotation Yrotation
          JOINT rForeArm
          {
            OFFSET -28.1742 -1.7115 0.48768
            CHANNELS 3 Zrotation Xrotation Yrotation
            JOINT rHand
            {
              OFFSET -22.5879 0.773209 7.07136
              CHANNELS 3 Zrotation Xrotation Yrotation
              JOINT rThumb1
              {
                OFFSET -1.2192 -0.487915 3.41376
                CHANNELS 3 Zrotation Xrotation Yrotation
                JOINT rThumb2
                {
                  OFFSET -3.37035 -0.52449 3.41376
                  CHANNELS 3 Zrotation Xrotation Yrotation
                  End Site
                  {
                    OFFSET -1.78271 -1.18214 1.43049
                  }
                }
              }
              JOINT rIndex1
              {
                OFFSET -7.75947 0.938293 5.60832
                CHANNELS 3 Zrotation Xrotation Yrotation
                JOINT rIndex2
                {
                  OFFSET -2.54057 -0.884171 1.56538
                  CHANNELS 3 Zrotation Xrotation Yrotation
                  End Site
                  {
                    OFFSET -1.62519 -0.234802 1.16502
                  }
                }
              }
              JOINT rMid1
              {
                OFFSET -8.24714 1.18213 3.41376
                CHANNELS 3 Zrotation Xrotation Yrotation
                JOINT rMid2
                {
                  OFFSET -3.10165 -0.590103 1.0647
                  CHANNELS 3 Zrotation Xrotation Yrotation
                  End Site
                  {
                    OFFSET -2.48547 -0.328903 0.83742
                  }
                }
              }
              JOINT rRing1
              {
                OFFSET -8.82822 0.546677 1.51678
                CHANNELS 3 Zrotation Xrotation Yrotation
                JOINT rRing2
                {
                  OFFSET -2.60934 -0.819778 -0.0198488
                  CHANNELS 3 Zrotation Xrotation Yrotation
                  End Site
                  {
                    OFFSET -2.33842 -0.294052 0.168128
                  }
                }
              }
              JOINT rPinky1
              {
                OFFSET -8.27202 -0.0477905 -0.4584
                CHANNELS 3 Zrotation Xrotation Yrotation
                JOINT rPinky2
                {
                  OFFSET -1.82734 -0.647385 -0.700984
                  CHANNELS 3 Zrotation Xrotation Yrotation
                  End Site
                  {
                    OFFSET -1.69225 -0.51767 -0.607171
                  }
                }
              }
            }
          }
        }
      }
      JOINT lCollar
      {
        OFFSET 2.68224 19.2634 -4.8768
        CHANNELS 3 Zrotation Xrotation Yrotation
        JOINT lShldr
        {
          OFFSET 8.77824 -1.95073 1.46304
          CHANNELS 3 Zrotation Xrotation Yrotation
          JOINT lForeArm
          {
            OFFSET 28.1742 -1.7115 0.48768
            CHANNELS 3 Zrotation Xrotation Yrotation
            JOINT lHand
            {
              OFFSET 22.5879 0.773209 7.07136
              CHANNELS 3 Zrotation Xrotation Yrotation
              JOINT lThumb1
              {
                OFFSET 1.2192 -0.487915 3.41376
                CHANNELS 3 Zrotation Xrotation Yrotation
                JOINT lThumb2
                {
                  OFFSET 3.37035 -0.52449 3.41376
                  CHANNELS 3 Zrotation Xrotation Yrotation
                  End Site
                  {
                    OFFSET 1.78271 -1.18214 1.43049
                  }
                }
              }
              JOINT lIndex1
              {
                OFFSET 7.75947 0.938293 5.60832
                CHANNELS 3 Zrotation Xrotation Yrotation
                JOINT lIndex2
                {
                  OFFSET 2.54057 -0.884171 1.56538
                  CHANNELS 3 Zrotation Xrotation Yrotation
                  End Site
                  {
                    OFFSET 1.62519 -0.234802 1.16502
                  }
                }
              }
              JOINT lMid1
              {
                OFFSET 8.24714 1.18213 3.41376
                CHANNELS 3 Zrotation Xrotation Yrotation
                JOINT lMid2
                {
                  OFFSET 3.10165 -0.590103 1.0647
                  CHANNELS 3 Zrotation Xrotation Yrotation
                  End Site
                  {
                    OFFSET 2.48547 -0.328903 0.83742
                  }
                }
              }
              JOINT lRing1
              {
                OFFSET 8.82822 0.546677 1.51678
                CHANNELS 3 Zrotation Xrotation Yrotation
                JOINT lRing2
                {
                  OFFSET 2.60934 -0.819778 -0.0198488
                  CHANNELS 3 Zrotation Xrotation Yrotation
                  End Site
                  {
                    OFFSET 2.33842 -0.294052 0.168128
                  }
                }
              }
              JOINT lPinky1
              {
                OFFSET 8.27202 -0.0477905 -0.4584
                CHANNELS 3 Zrotation Xrotation Yrotation
                JOINT lPinky2
                {
                  OFFSET 1.82734 -0.647385 -0.700984
                  CHANNELS 3 Zrotation Xrotation Yrotation
                  End Site
                  {
                    OFFSET 1.69225 -0.51767 -0.607171
                  }
                }
              }
            }
          }
        }
      }
    }
  }
  JOINT rButtock
  {
    OFFSET -8.77824 4.35084 1.2192
    CHANNELS 3 Zrotation Xrotation Yrotation
    JOINT rThigh
    {
      OFFSET 0 -1.70687 -2.19456
      CHANNELS 3 Zrotation Xrotation Yrotation
      JOINT rShin
      {
        OFFSET 0 -36.8199 0.73152
        CHANNELS 3 Zrotation Xrotation Yrotation
        JOINT rFoot
        {
          OFFSET 0.73152 -45.1104 -5.12064
          CHANNELS 3 Zrotation Xrotation Yrotation
          End Site
          {
            OFFSET -1.1221 -3.69964 12.103
          }
        }
      }
    }
  }
  JOINT lButtock
  {
    OFFSET 8.77824 4.35084 1.2192
    CHANNELS 3 Zrotation Xrotation Yrotation
    JOINT lThigh
    {
      OFFSET 0 -1.70687 -2.19456
      CHANNELS 3 Zrotation Xrotation Yrotation
      JOINT lShin
      {
        OFFSET 0 -36.8199 0.73152
        CHANNELS 3 Zrotation Xrotation Yrotation
        JOINT lFoot
        {
          OFFSET -0.73152 -45.1104 -5.12064
          CHANNELS 3 Zrotation Xrotation Yrotation
          End Site
          {
            OFFSET 1.1221 -3.69964 12.103
          }
        }
      }
    }
  }
}
MOTION
Frames:	4
Frame Time:	0.00833333
15.1751 50.5006 116.368 0.0 0.0 0.0 0.602206 -0.00285605 0.0171674 0.166037 -0.00431863 0.0287679 7.278e-15 -7.95139e-16 6.83322e-17 2.17825e-14 3.18055e-15 2.26739e-16 -0.0 0.0 0.0 -0.0 0.0 0.0 3.6266e-15 -2.71776e-18 1.98785e-16 7.83166e-14 -4.96962e-17 1.98785e-15 1.32132e-12 -3.95581e-13 -6.36111e-15 1.50984e-11 3.90562e-13 1.97194e-13 3.56229e-11 -1.21614e-14 4.32555e-13 6.15211e-11 -2.22639e-14 7.41864e-13 3.56278e-11 -8.34896e-15 4.23014e-13 7.73091 5.47488 0.417314 3.56241e-11 -1.18277e-14 4.32555e-13 2.90554 0.965183 0.102902 3.56293e-11 -1.13307e-14 4.29375e-13 10.2786 0.731801 0.0259123 3.56238e-11 -1.27222e-14 4.35736e-13 2.22167 -0.733487 -0.20892 3.52989e-15 -3.10601e-18 -9.93923e-17 7.51907e-14 -5.59082e-17 1.98785e-16 1.31705e-12 3.95184e-13 1.27222e-14 1.51093e-11 -3.98886e-13 1.90833e-13 3.56401e-11 -9.05661e-15 4.29375e-13 6.15505e-11 -2.22639e-14 7.48225e-13 3.56341e-11 -5.1684e-15 4.45278e-13 -7.73091 5.47488 -0.417314 3.56397e-11 -8.74653e-15 4.32555e-13 -2.90554 0.965183 -0.102902 3.56292e-11 -8.15017e-15 4.33351e-13 -10.2786 0.731801 -0.0259123 3.56409e-11 -1.07344e-14 4.26194e-13 -2.22167 -0.733487 0.20892 -2.03217e-16 0.0 -3.88251e-19 0.986001 -4.60211 -0.0812624 -0.0020263 2.78404 -0.00807391 -0.533204 1.81809 0.098302 2.03217e-16 0.0 3.88251e-19 -0.0696203 -2.29257 0.0218502 0.00846266 -1.39927 0.0722988 0.525608 3.69174 -0.136003
8.95245 52.6775 100.296 179.599 -1.7802 176.195 -6.95867 12.1371 -3.30583 2.86372 -1.66757 -2.28597 0.413838 2.64894 -0.864216 0.569606 -0.446322 -1.3023 -0.0 0.0 0.0 -0.0 0.0 0.0 -7.9986e-14 -4.50793e-14 5.39269e-14 18.1563 -5.5799 -9.51838 -11.9249 -8.86263 13.4028 0.00661251 -1.88973 -0.265164 3.7941e-10 1.00464e-09 1.05278e-09 6.48398e-10 1.72651e-09 1.82232e-09 3.79415e-10 1.00464e-09 1.05278e-09 7.73091 5.47488 0.417314 3.79411e-10 1.00464e-09 1.05278e-09 2.90554 0.965183 0.102902 3.79418e-10 1.00464e-09 1.05278e-09 10.2786 0.731801 0.0259123 3.7941e-10 1.00464e-09 1.05279e-09 2.22167 -0.733487 -0.20892 -8.00945e-14 -4.5074e-14 5.36583e-14 -3.8438 0.86005 3.46482 8.84004 -5.71477 -11.4782 -0.0124689 -2.50553 0.350967 -1.40179e-09 -3.76823e-09 3.00513e-10 -2.42584e-09 -6.53227e-09 5.14935e-10 -1.4018e-09 -3.76823e-09 3.00523e-10 -7.73091 5.47488 -0.417314 -1.40179e-09 -3.76823e-09 3.00515e-10 -2.90554 0.965183 -0.102902 -1.4018e-09 -3.76823e-09 3.00517e-10 -10.2786 0.731801 -0.0259123 -1.40179e-09 -3.76823e-09 3.0051e-10 -2.22167 -0.733487 0.20892 -2.03217e-16 0.0 -3.88251e-19 4.96815 -20.2791 0.794493 0.471291 29.9533 0.206195 -0.463185 2.50467 1.61543 2.03217e-16 0.0 3.88251e-19 7.0575 -16.4296 2.88811 -0.170983 13.6249 -0.246486 0.606079 5.24245 -3.71712
9.16078 52.5842 98.442 179.558 -1.0389 176.502 -13.2392 24.7776 -7.35682 5.56103 -3.43269 -4.79167 1.02776 5.48939 -1.76186 1.00823 -0.990793 -2.64656 -0.0 0.0 0.0 -0.0 0.0 0.0 -1.69716e-13 -9.26409e-14 1.13814e-13 35.4014 -10.9898 -19.8555 -20.0716 -16.6457 28.5657 -0.00575355 -3.82219 -0.537362 7.58304e-10 2.11546e-09 2.20176e-09 1.29534e-09 3.6358e-09 3.81123e-09 7.5831e-10 2.11547e-09 2.20175e-09 7.73091 5.47488 0.417314 7.58305e-10 2.11546e-09 2.20176e-09 2.90554 0.965183 0.102902 7.58314e-10 2.11546e-09 2.20176e-09 10.2786 0.731801 0.0259123 7.58302e-10 2.11546e-09 2.20176e-09 2.22167 -0.733487 -0.20892 -1.69838e-13 -9.26294e-14 1.13577e-13 -8.02056 1.82419 7.11596 15.7628 -11.0285 -24.0056 0.0079202 -5.11055 0.718173 -2.9168e-09 -7.76747e-09 6.20155e-10 -5.04749e-09 -1.34649e-08 1.06304e-09 -2.9168e-09 -7.76747e-09 6.20159e-10 -7.73091 5.47488 -0.417314 -2.9168e-09 -7.76747e-09 6.20156e-10 -2.90554 0.965183 -0.102902 -2.9168e-09 -7.76747e-09 6.20159e-10 -10.2786 0.731801 -0.0259123 -2.91679e-09 -7.76746e-09 6.20154e-10 -2.22167 -0.733487 0.20892 -2.03217e-16 0.0 -3.88251e-19 9.88176 -36.7496 2.05296 0.546126 58.6029 0.733825 -0.452737 3.2921 3.28875 2.03217e-16 0.0 3.88251e-19 16.3456 -31.2461 6.67943 -0.15678 29.3122 -0.653423 0.929834 6.96982 -7.60131
9.23771 52.4958 96.6627 179.328 -0.4683 176.54 -17.0458 35.8688 -12.0376 7.85571 -4.96164 -6.93866 1.48313 7.93955 -2.61496 1.64799 -1.3362 -3.90785 -0.0 0.0 0.0 -0.0 0.0 0.0 -2.47211e-13 -1.35232e-13 1.61383e-13 49.007 -14.8759 -29.4993 -23.8135 -20.6724 43.0789 -0.0328541 -5.6687 -0.798967 1.06698e-09 3.01394e-09 3.15748e-09 1.82215e-09 5.17958e-09 5.46548e-09 1.06699e-09 3.01395e-09 3.15748e-09 7.73091 5.47488 0.417314 1.06699e-09 3.01394e-09 3.15749e-09 2.90554 0.965183 0.102902 1.067e-09 3.01394e-09 3.15748e-09 10.2786 0.731801 0.0259123 1.06698e-09 3.01394e-09 3.15748e-09 2.22167 -0.733487 -0.20892 -2.47343e-13 -1.35216e-13 1.61174e-13 -11.8418 2.54244 10.4037 19.9348 -14.3837 -35.5337 0.0553533 -7.51546 1.06101 -4.27665e-09 -1.13047e-08 9.00679e-10 -7.40062e-09 -1.95968e-08 1.54331e-09 -4.27666e-09 -1.13047e-08 9.00678e-10 -7.73091 5.47488 -0.417314 -4.27665e-09 -1.13047e-08 9.00679e-10 -2.90554 0.965183 -0.102902 -4.27665e-09 -1.13047e-08 9.00683e-10 -10.2786 0.731801 -0.0259123 -4.27665e-09 -1.13047e-08 9.00679e-10 -2.22167 -0.733487 0.20892 -2.03217e-16 0.0 -3.88251e-19 15.1189 -51.5751 3.85984 -3.77914 84.2658 5.53423 -0.432307 3.86806 4.65577 2.03217e-16 0.0 3.88251e-19 26.9763 -44.1754 11.5645 0.12351 43.6673 -1.19336 1.34955 8.22649 -10.9472
